# xmcd CD database file
#
# Track frame offsets:
#       150
#       2448
#       26735
#       44081
#       62911
#       67399
#       84869
#       112630
#       130380
#       133213
#       171362
#       187870
#       204226
#       207515
#       229539
#       242114
#       268609
#       273947
#       301503
#
# Disc length: 4441 seconds
#
# Revision: 0
# Processed by: cddbd v1.5.1PL2 Copyright (c) Steve Scherf et al.
# Submitted via: jack 3.1.1
#
DISCID=08115713
DTITLE=Max Stalling - Sellout - Live at Dan's Silver Leaf
DYEAR=2005
DGENRE=Country
TTITLE0=Intro
TTITLE1=Wide Afternoon
TTITLE2=I-35
TTITLE3=Fermented Evening
TTITLE4=6x9 Speakers Intro
TTITLE5=6x9 Speakers
TTITLE6=Sparks
TTITLE7=Bass Run
TTITLE8=Band Intro - Pila Song Intro
TTITLE9=Pila Song
TTITLE10=Something To See
TTITLE11=Ain't Falling in Love (With You Tonight)
TTITLE12=Scars and Souvenirs Intro
TTITLE13=Scars and Souvenirs
TTITLE14=Girl by the Lake
TTITLE15=Travelin' Lite
TTITLE16=Probably Corsicana Intro
TTITLE17=Probably Corsicana
TTITLE18=Drunk in Mexico on a Sunday Afternoon
EXTD=
EXTT0=
EXTT1=
EXTT2=
EXTT3=
EXTT4=
EXTT5=
EXTT6=
EXTT7=
EXTT8=
EXTT9=
EXTT10=
EXTT11=
EXTT12=
EXTT13=
EXTT14=
EXTT15=
EXTT16=
EXTT17=
EXTT18=
PLAYORDER=
